<svg height="496pt" viewBox="-48 0 496 496" width="496pt" xmlns="http://www.w3.org/2000/svg"><path d="m168 152c0 8.835938-7.164062 16-16 16s-16-7.164062-16-16 7.164062-16 16-16 16 7.164062 16 16zm0 0"/><path d="m264 152c0 8.835938-7.164062 16-16 16s-16-7.164062-16-16 7.164062-16 16-16 16 7.164062 16 16zm0 0"/><path d="m344.191406 348.761719-52.976562-12.234375-22.773438-15.183594c-3.175781-2.128906-7.394531-1.695312-10.097656 1l-5.433594 5.433594-3.847656-19.25c27.929688-13.6875 49.363281-38.582032 58.3125-68.863282 20.457031-1.753906 36.625-18.761718 36.625-39.664062v-104c0-34.105469-26.808594-62.0625-60.863281-63.902344-19.578125-20.441406-46.761719-32.097656-75.136719-32.097656h-48c-57.34375 0-104 46.65625-104 104v96c0 20.902344 16.167969 37.910156 36.632812 39.65625 8.941407 30.289062 30.375 55.175781 58.3125 68.863281l-3.847656 19.25-5.433594-5.433593c-2.695312-2.695313-6.921874-3.121094-10.097656-1l-22.773437 15.183593-52.96875 12.234375c-32.871094 7.582032-55.824219 36.429688-55.824219 70.15625v69.089844c0 4.425781 3.585938 8 8 8h384c4.414062 0 8-3.574219 8-8v-69.089844c0-33.726562-22.953125-62.574218-55.808594-70.148437zm-79.175781-10.464844 11.886719 7.917969-38.148438 57.226562-19.441406-19.441406zm-66.894531 101.253906c.621094.160157 1.214844.449219 1.878906.449219s1.257812-.289062 1.878906-.449219l5.058594 40.449219h-13.882812zm83.941406-182-17.589844-13.191406c4.757813-9.320313 7.527344-19.121094 7.527344-28.359375 0-6.289062-1.359375-11.496094-3.542969-15.960938l27.542969-22.960937v30.921875c0 18.144531-5.152344 35.0625-13.9375 49.550781zm13.9375-101.304687-37.976562 31.648437c-16.542969-11.824219-43.671876-11.894531-58.023438-11.894531s-41.480469.070312-58.023438 11.894531l-37.976562-31.648437v-56.703125l15.734375 5.898437c51.503906 19.3125 109.027344 19.3125 160.523437 0l15.742188-5.898437zm-152 59.753906c0-11.863281 6.65625-24 56-24s56 12.136719 56 24c0 22.121094-25.089844 56-56 56s-56-33.878906-56-56zm166.894531 6.871094c.648438-4.878906 1.105469-9.816406 1.105469-14.871094v-30.527344c9.289062 3.3125 16 12.113282 16 22.527344 0 10.824219-7.238281 19.886719-17.105469 22.871094zm-150.894531-206.871094h48c25 0 48.910156 10.695312 65.59375 29.335938 1.519531 1.695312 4.125 2.664062 6.40625 2.664062 26.472656 0 48 21.527344 48 48v72.207031c-4.671875-3.535156-10.054688-6.183593-16-7.390625v-72.816406c0-2.625-1.289062-5.078125-3.441406-6.574219-2.160156-1.496093-4.910156-1.839843-7.367188-.914062l-26.542968 9.953125c-47.894532 17.96875-101.390626 17.96875-149.289063 0l-26.542969-9.953125c-2.449218-.925781-5.207031-.574219-7.367187.914062-2.160157 1.496094-3.449219 3.949219-3.449219 6.574219v72.808594c-5.945312 1.214844-11.328125 3.855468-16 7.390625v-64.199219c0-48.519531 39.480469-88 88-88zm-88 184c0-10.414062 6.710938-19.214844 16-22.527344v30.527344c0 5.054688.457031 9.992188 1.105469 14.871094-9.859375-2.984375-17.105469-12.046875-17.105469-22.871094zm32-22.921875 27.542969 22.953125c-2.183594 4.472656-3.542969 9.679688-3.542969 15.96875 0 9.238281 2.769531 19.039062 7.527344 28.359375l-17.589844 13.191406c-8.785156-14.488281-13.9375-31.40625-13.9375-49.550781zm23.304688 93.441406 16.832031-12.625c13.367187 17.144531 33.695312 30.105469 55.863281 30.105469s42.496094-12.960938 55.863281-30.105469l16.832031 12.625c-17.617187 20.457031-43.640624 33.480469-72.695312 33.480469s-55.078125-13.023438-72.695312-33.480469zm38.710937 44.175781c10.726563 3.425782 22.136719 5.304688 33.984375 5.304688s23.257812-1.878906 33.984375-5.304688l5.335937 26.679688-36.976562 36.976562c-1.558594 1.550782-2.34375 3.601563-2.34375 5.648438s.785156 4.097656 2.34375 5.65625l11.097656 11.097656-13.441406 17.910156-13.441406-17.910156 11.097656-11.097656c1.558594-1.558594 2.34375-3.609375 2.34375-5.65625s-.785156-4.097656-2.34375-5.65625l-36.976562-36.976562zm-31.03125 23.601563 45.703125 45.703125-19.449219 19.449219-38.148437-57.226563zm-118.984375 80.613281c0-26.230468 17.847656-48.671875 43.40625-54.558594l49-11.3125 44.929688 67.402344c1.328124 1.992188 3.488281 3.285156 5.863281 3.519532.28125.023437.535156.039062.800781.039062 2.113281 0 4.152344-.832031 5.65625-2.34375l9.480469-9.480469 8.808593 11.753907-7.007812 56.070312h-160.9375zm368 61.089844h-160.9375l-7.007812-56.070312 8.808593-11.753907 9.480469 9.480469c1.503906 1.511719 3.542969 2.34375 5.65625 2.34375.265625 0 .519531-.015625.792969-.039062 2.382812-.234376 4.535156-1.527344 5.863281-3.519532l44.929688-67.402344 49.007812 11.3125c25.558594 5.886719 43.40625 28.328126 43.40625 54.558594zm0 0"/></svg>