<svg height="512" viewBox="0 0 60 57" width="512" xmlns="http://www.w3.org/2000/svg"><g id="Page-1" fill="none" fill-rule="evenodd"><g id="058---Washing-Hands" fill="rgb(0,0,0)" fill-rule="nonzero"><path id="Shape" d="m45.124 26.24 7.855-4.366c2.1261122-1.1670332 3.0573696-3.7295692 2.1766006-5.9893403-.880769-2.2597712-3.3005145-3.5162194-5.6556006-2.9366597l-11.583 2.829c-.5540025-4.5121497-4.083169-8.08206406-8.5886617-8.68782681-4.5054928-.60576276-8.8522371 1.90523672-10.5783383 6.11082681-1.7835161-.1138158-3.4846644.7642459-4.425 2.284l-11.937 18.016-.95 1.55c-.015.024-.05.09-.063.115-2.01575345 4.0319181-1.80167565 8.8198014.56586825 12.6557317s6.55140576 6.1736549 11.05913175 6.1792683h23c.033 0 .064-.009.1-.009l1.516 1.516c.7470079.7522986 1.7638249 1.1746521 2.824 1.173 1.0606727.0071806 2.0791877-.4147962 2.824-1.17.5000261-.4931645.8602781-1.1101478 1.044-1.788l.381.382c1.5877463 1.4929927 4.0639593 1.4899237 5.648-.007.5062711-.5055451.8672172-1.1379779 1.045-1.831 1.6063963 1.2259076 3.8664621 1.0985799 5.325-.3 1.4293967-1.4410099 1.5581615-3.7222934.3-5.315 1.3878569-.3616352 2.4758856-1.4386225 2.8516574-2.8227188.3757718-1.3840962-.0182309-2.863444-1.0326574-3.8772812zm-17.124-17.24c3.1646029.00134832 6.0309745 1.8680392 7.3119245 4.761805s.7356891 6.2706447-1.3909245 8.614195c-.2508534.2753123-.3279131.6672253-.1999709 1.0170182.1279423.3497929.4396832.5994959.8089709.6479818 1.984463.2652782 3.4671307 1.9568867 3.47 3.959h-17.384l2.475-8.664c.6336064-2.1920172-.3607364-4.5274695-2.38-5.59 1.2708404-2.8897548 4.1321547-4.75280844 7.289-4.746zm-26 32c-.0049762-1.7022054.38634973-3.3822022 1.143-4.907l.95-1.55c.008-.013.019-.034.031-.057l11.876-17.913c.0088201-.0115778.0165213-.0239667.023-.037.633573-1.0567526 1.8834884-1.5751488 3.079-1.277h.007.035c.1964599.0495563.3871725.1196071.569.209.9667645.4765272 1.5756136 1.4642071 1.567 2.542-.00012.2626854-.0378357.5240014-.112.776l-2.84 9.94c-.0859555.3017007-.025352.6262521.1636883.8766027s.4846054.3974821.7983117.3973973h20.71c1.1045695 0 2 .8954305 2 2s-.8954305 2-2 2h-15c-.5522847 0-1 .4477153-1 1s.4477153 1 1 1h18c1.1045695 0 2 .8954305 2 2s-.8954305 2-2 2h-19c-.5522847 0-1 .4477153-1 1s.4477153 1 1 1h16c1.1045695 0 2 .8954305 2 2s-.8954305 2-2 2h-17c-.5522847 0-1 .4477153-1 1s.4477153 1 1 1h13c1.1045695 0 2 .8954305 2 2s-.8954305 2-2 2h-23c-6.07216255-.0071635-10.9928365-4.9278374-11-11zm39.846 13.1c-.7908263.7506803-2.0319116.7475985-2.819-.007l-.784-.785c.2093054-.141684.4048318-.3027254.584-.481.7530388-.7477399 1.1754539-1.7657854 1.173-2.827-.001707-.215516-.0207686-.4305445-.057-.643l1.91 1.911.013.014c.373365.3750498.5811441.8838978.5770112 1.4130922-.0041328.5291944-.219834 1.0347351-.5990112 1.4039078zm7.077-1.417c-.7958626.7420551-2.0301374.7420551-2.826 0l-2.811-2.811-.022-.022-2.056-2.05c1.3732991-.4203103 2.4083087-1.5557542 2.7-2.962l5.014 5.015c.3794112.3730126.5931914.8827273.5933794 1.4147905s-.2132319 1.0419288-.5923794 1.4152095zm6.37-2.13c-.7888865.7614812-2.0391135.7614812-2.828 0l-2.13-2.12-6.527-6.533c1.4119955-.2747248 2.5581249-1.3043965 2.982-2.679l6.377 6.379.006.005.039.039 2.078 2.078c.7781033.7827883.7794425 2.0465644.003 2.831zm2.12-6.36c-.7768486.7462191-1.9997434.7606627-2.794.033l-.032-.033-8.074-8.073c-.6157002-1.158345-1.7602384-1.9411748-3.063-2.095.7261205-1.2369318.7343816-2.7679618.0216514-4.0126572-.7127302-1.2446955-2.0373393-2.0125052-3.4716514-2.0123428-.0049056-2.399018-1.4355909-4.5654843-3.64-5.512.9084552-1.3954729 1.451752-2.996823 1.58-4.657l12.04-2.94c1.2321614-.3009919 2.5143166.253085 3.1394796 1.3567104.6251629 1.1036254.4411883 2.4882108-.4504796 3.3902896-.191979.1886905-.4094213.3495843-.646.478l-9.029 5.02c-.2741377.1524908-.4608325.4247833-.5042602.7354583-.0434277.3106749.0614452.6237242.2832602.8455417l14.64 14.65c.7794319.7807702.7794319 2.0452298 0 2.826z"/><path id="Shape" d="m24.468 14.471c.262482-.0013707.5139013-.1058893.7-.291 1.1627293-1.1648012 2.9202385-1.4985255 4.429-.841.5064451.2209139 1.0960861-.0105549 1.317-.517s-.0105549-1.0960861-.517-1.317c-2.2593611-.9884841-4.8937618-.4893971-6.635 1.257-.2864473.2849045-.3733207.7141846-.2201881 1.0880469s.5161853.6188543.9201881.6209531z"/><path id="Shape" d="m39 7.5c0 1.93299662 1.5670034 3.5 3.5 3.5s3.5-1.56700338 3.5-3.5-1.5670034-3.5-3.5-3.5-3.5 1.56700338-3.5 3.5zm5 0c0 .82842712-.6715729 1.5-1.5 1.5s-1.5-.67157288-1.5-1.5.6715729-1.5 1.5-1.5 1.5.67157288 1.5 1.5z"/><path id="Shape" d="m55 0c-2.7614237 0-5 2.23857625-5 5s2.2385763 5 5 5 5-2.23857625 5-5c-.0033061-2.76005315-2.2399468-4.99669388-5-5zm0 8c-1.6568542 0-3-1.34314575-3-3s1.3431458-3 3-3 3 1.34314575 3 3c0 .79564947-.3160705 1.55871121-.8786797 2.12132034-.5626091.56260914-1.3256708.87867966-2.1213203.87867966z"/><path id="Shape" d="m52 28c0 1.6568542 1.3431458 3 3 3s3-1.3431458 3-3-1.3431458-3-3-3-3 1.3431458-3 3zm3-1c.5522847 0 1 .4477153 1 1s-.4477153 1-1 1-1-.4477153-1-1 .4477153-1 1-1z"/></g></g></svg>